<svg width="1489" height="1488" xmlns="http://www.w3.org/2000/svg" xmlns:xlink="http://www.w3.org/1999/xlink" xml:space="preserve" overflow="hidden"><g transform="translate(73 334)"><g><g><g><g><path d="M671 648.022 289.409 266.431 351.603 204.238 671 523.634 990.106 204.528 1052.3 266.722 671 648.022ZM-73 410C-73-1.23438 259.766-334 671-334 1082.23-334 1415-1.23438 1415 410 1415 821.234 1082.23 1154 671 1154 259.766 1154-73 821.234-73 410ZM13.6062 410C13.6062 772.409 308.591 1067.39 671 1067.39 1033.41 1067.39 1328.39 772.409 1328.39 410 1328.39 47.5906 1033.41-247.394 671-247.394 308.591-247.394 13.6062 47.5906 13.6062 410Z" fill="rgb(13, 54, 92)" fill-rule="nonzero" fill-opacity="1"/></g></g></g></g></g></svg>